<?xml version="1.0" encoding="UTF-8"?>
<svg id="Layer_2" data-name="Layer 2" xmlns="http://www.w3.org/2000/svg" viewBox="0 0 245 80">
  <defs>
    <style>
      .cls-1 {
        fill: #252525;
      }

      .cls-2 {
        fill: #4fa0ca;
        opacity: 0;
      }

      .cls-3 {
        fill: #76b581;
      }
    </style>
  </defs>
  <g id="Layer_1-2" data-name="Layer 1">
    <g>
      <rect class="cls-2" width="245" height="80"/>
      <g>
        <path class="cls-3" d="M51.86,25.08l-4.3-13.22c1.35-.41,2.73-.74,4.09-1.03,2.32-.46,4.57-.74,6.73-.83v14.05c0,3.8-5.35,4.65-6.52,1.03Z"/>
        <path class="cls-1" d="M48.7,47.25l-19.31-26.57c4.8-3.33,9.83-5.95,15-7.8l10.19,31.37c1.18,3.62-3.64,6.07-5.88,3Z"/>
        <path class="cls-3" d="M52.55,69.33L10.66,38.89c4.81-6.37,10.23-11.84,16.02-16.26l30.53,42.03c2.24,3.08-1.59,6.9-4.67,4.67Z"/>
        <polygon class="cls-1" points="79.35 32.08 68.83 32.08 68.83 27.6 77.81 27.6 77.81 24.12 68.83 24.12 68.83 19.92 78.99 19.92 78.99 16.33 64.38 16.33 64.38 35.67 79.35 35.67 79.35 32.08"/>
        <polygon class="cls-1" points="92.86 35.67 101.23 16.33 96.78 16.33 90.81 30.14 84.93 16.33 80.1 16.33 88.44 35.67 92.86 35.67"/>
        <path class="cls-1" d="M104.39,33.15c.95.9,2.07,1.6,3.37,2.1,1.3.5,2.71.75,4.24.75s2.91-.25,4.19-.75c1.28-.5,2.39-1.19,3.34-2.09.95-.89,1.69-1.95,2.22-3.18.53-1.23.8-2.56.8-3.99s-.27-2.79-.8-3.99c-.54-1.21-1.28-2.26-2.22-3.16-.95-.9-2.06-1.6-3.34-2.1-1.28-.5-2.68-.75-4.21-.75s-2.91.25-4.2.75c-1.29.5-2.41,1.2-3.37,2.1-.96.9-1.7,1.96-2.22,3.18s-.79,2.54-.79,3.98.26,2.76.79,3.98c.52,1.22,1.26,2.27,2.21,3.18ZM106.38,23.49c.3-.76.73-1.41,1.28-1.96.55-.55,1.19-.98,1.92-1.27.73-.29,1.52-.44,2.39-.44s1.67.15,2.4.44c.74.29,1.38.72,1.92,1.27.54.55.97,1.2,1.27,1.96.3.76.46,1.59.46,2.51s-.15,1.76-.46,2.52c-.3.76-.73,1.41-1.28,1.96-.55.55-1.19.98-1.92,1.27-.73.29-1.52.44-2.39.44s-1.67-.15-2.4-.44c-.74-.29-1.38-.72-1.92-1.27-.54-.55-.97-1.21-1.27-1.97-.3-.76-.46-1.6-.46-2.5s.15-1.76.46-2.51Z"/>
        <polygon class="cls-1" points="140.09 32.02 130.4 32.02 130.4 16.33 125.92 16.33 125.92 35.67 140.09 35.67 140.09 32.02"/>
        <polygon class="cls-1" points="151.47 35.67 159.85 16.33 155.4 16.33 149.43 30.14 143.55 16.33 138.71 16.33 147.06 35.67 151.47 35.67"/>
        <polygon class="cls-1" points="176.42 32.08 165.89 32.08 165.89 27.6 174.87 27.6 174.87 24.12 165.89 24.12 165.89 19.92 176.06 19.92 176.06 16.33 161.45 16.33 161.45 35.67 176.42 35.67 176.42 32.08"/>
        <polygon class="cls-1" points="184.4 23.93 194.04 35.67 197.71 35.67 197.71 16.33 193.3 16.33 193.3 28.06 183.68 16.33 179.98 16.33 179.98 35.67 184.4 35.67 184.4 23.93"/>
        <polygon class="cls-1" points="200.12 19.98 206.31 19.98 206.31 35.67 210.78 35.67 210.78 19.98 216.97 19.98 216.97 16.33 200.12 16.33 200.12 19.98"/>
        <polygon class="cls-1" points="223.82 32.08 223.82 27.6 232.8 27.6 232.8 24.12 223.82 24.12 223.82 19.92 233.98 19.92 233.98 16.33 219.37 16.33 219.37 35.67 234.34 35.67 234.34 32.08 223.82 32.08"/>
        <polygon class="cls-3" points="79.04 60.23 69.01 60.23 69.01 44 64.38 44 64.38 64 79.04 64 79.04 60.23"/>
        <path class="cls-3" d="M88.04,44l-8.91,20h4.74l1.78-4.29h9.27l1.78,4.29h4.86l-8.94-20h-4.57ZM87.11,56.2l3.18-7.65,3.17,7.65h-6.35Z"/>
        <path class="cls-3" d="M120.21,51.93c.51-.77.77-1.68.77-2.73,0-1.56-.63-2.82-1.9-3.77-1.27-.95-3.16-1.43-5.67-1.43h-9.77v20h10.34c2.63,0,4.62-.48,5.97-1.44,1.35-.96,2.03-2.3,2.03-4.01,0-1.16-.27-2.14-.81-2.94-.54-.8-1.3-1.4-2.27-1.81-.18-.08-.37-.14-.56-.2.78-.41,1.41-.96,1.88-1.66ZM112.84,47.49c1.12,0,1.99.2,2.59.59s.9.98.9,1.76-.3,1.4-.9,1.79c-.6.39-1.46.59-2.59.59h-4.6v-4.72h4.6ZM116.36,59.93c-.62.39-1.53.59-2.73.59h-5.4v-4.94h5.4c1.2,0,2.11.2,2.73.61.62.41.93,1.03.93,1.87s-.31,1.48-.93,1.87Z"/>
      </g>
    </g>
  </g>
</svg>